<svg xmlns="http://www.w3.org/2000/svg" xmlns:xlink="http://www.w3.org/1999/xlink" id="Layer_1" width="100" height="100" x="0" y="0" enable-background="new 0 -26.363 100 100" version="1.1" viewBox="0 -26.363 100 100" xml:space="preserve"><path fill="#010101" d="M87.167,55.658l0.052-11.435L53.881,10.885c2.171-7.872,0.211-16.611-5.943-22.739 c-9.13-9.167-24.025-9.091-33.266,0.109c-9.222,9.263-9.297,24.156-0.163,33.32c6.135,6.114,14.851,8.072,22.714,5.92l6.706,6.705 l10.622,0.001l-0.001,8.13l7.803-0.001l0.002,8.016l8.125,0.002l0.002,8.125l13.869,0.003 C86.397,58.432,87.155,57.725,87.167,55.658z M19.601,1.966c-2.422-2.468-2.399-6.425,0.056-8.834 c2.443-2.489,6.398-2.51,8.832-0.054c2.417,2.393,2.394,6.348-0.053,8.833C25.986,4.324,22.03,4.347,19.601,1.966z"/></svg>